# xmcd
#
# Track frame offsets: 
#        150
#        16327
#        35415
#        57917
#        92532
#        119070
#        144735
#        163282
#        197565
#        216397
#        244315
#        271622
#
# Disc length: 3928 seconds
#
# Revision: 0
# Processed by: cddbd v1.4PL0 Copyright (c) Steve Scherf et al.
# Submitted via: ExactAudioCopy v0.90a11
#
DISCID=b00f560c
DTITLE=The Nashville Stars 2000 - 101 Country Hits Party Mix
DYEAR=1900
DGENRE=
TTITLE0=Country Megamix ( Bonus Track )
TTITLE1=Gone Country Medley
TTITLE2=Burn The Jukebox Medley
TTITLE3=Country Ladies Medley
TTITLE4=Country Dance Club Medley
TTITLE5=Boot Scootin' Medley
TTITLE6=Friends In Low Places Medley
TTITLE7=Slow Dancin' Medley
TTITLE8=Country Groups Medley
TTITLE9=Rock The Country Medley
TTITLE10=Two Steppin' Medley
TTITLE11=Country Extended Megamix ( Bonus Track )
EXTD=
EXTT0=
EXTT1=
EXTT2=
EXTT3=
EXTT4=
EXTT5=
EXTT6=
EXTT7=
EXTT8=
EXTT9=
EXTT10=
EXTT11=
PLAYORDER=
